<svg width="126" height="126" viewBox="0 0 126 126" fill="none" xmlns="http://www.w3.org/2000/svg">
<path d="M62.5829 44.0321C62.9911 44.0321 63.322 43.7012 63.322 43.2929C63.322 42.8847 62.9911 42.5537 62.5829 42.5537C62.1747 42.5537 61.8438 42.8847 61.8438 43.2929C61.8438 43.7012 62.1747 44.0321 62.5829 44.0321Z" fill="white"/>
<path d="M62.538 53.8915C62.9462 53.8915 63.2771 53.5606 63.2771 53.1523C63.2771 52.744 62.9462 52.4131 62.538 52.4131C62.1297 52.4131 61.7988 52.744 61.7988 53.1523C61.7988 53.5606 62.1297 53.8915 62.538 53.8915Z" fill="white"/>
<path d="M88.1161 16.2773C88.5243 16.2773 88.8552 15.9463 88.8552 15.538C88.8552 15.1298 88.5243 14.7988 88.1161 14.7988C87.7079 14.7988 87.377 15.1298 87.377 15.538C87.377 15.9463 87.7079 16.2773 88.1161 16.2773Z" fill="white"/>
<path d="M37.0419 16.2773C37.4501 16.2773 37.781 15.9463 37.781 15.538C37.781 15.1298 37.4501 14.7988 37.0419 14.7988C36.6337 14.7988 36.3027 15.1298 36.3027 15.538C36.3027 15.9463 36.6337 16.2773 37.0419 16.2773Z" fill="white"/>
<path d="M62.5829 1.56633C62.9911 1.56633 63.322 1.23537 63.322 0.827109C63.322 0.41885 62.9911 0.0878906 62.5829 0.0878906C62.1747 0.0878906 61.8438 0.41885 61.8438 0.827109C61.8438 1.23537 62.1747 1.56633 62.5829 1.56633Z" fill="white"/>
<path d="M62.5829 44.0321C62.9911 44.0321 63.322 43.7012 63.322 43.2929C63.322 42.8847 62.9911 42.5537 62.5829 42.5537C62.1747 42.5537 61.8438 42.8847 61.8438 43.2929C61.8438 43.7012 62.1747 44.0321 62.5829 44.0321Z" fill="white"/>
<path d="M62.538 53.8915C62.9462 53.8915 63.2771 53.5606 63.2771 53.1523C63.2771 52.744 62.9462 52.4131 62.538 52.4131C62.1297 52.4131 61.7988 52.744 61.7988 53.1523C61.7988 53.5606 62.1297 53.8915 62.538 53.8915Z" fill="white"/>
<path d="M88.1161 16.2773C88.5243 16.2773 88.8552 15.9463 88.8552 15.538C88.8552 15.1298 88.5243 14.7988 88.1161 14.7988C87.7079 14.7988 87.377 15.1298 87.377 15.538C87.377 15.9463 87.7079 16.2773 88.1161 16.2773Z" fill="white"/>
<path d="M37.0419 16.2773C37.4501 16.2773 37.781 15.9463 37.781 15.538C37.781 15.1298 37.4501 14.7988 37.0419 14.7988C36.6337 14.7988 36.3027 15.1298 36.3027 15.538C36.3027 15.9463 36.6337 16.2773 37.0419 16.2773Z" fill="white"/>
<path d="M124.33 63.329C124.738 63.329 125.069 62.9981 125.069 62.5898C125.069 62.1815 124.738 61.8506 124.33 61.8506C123.922 61.8506 123.591 62.1815 123.591 62.5898C123.591 62.9981 123.922 63.329 124.33 63.329Z" fill="white"/>
<path d="M81.8788 63.329C82.287 63.329 82.6179 62.9981 82.6179 62.5898C82.6179 62.1815 82.287 61.8506 81.8788 61.8506C81.4706 61.8506 81.1396 62.1815 81.1396 62.5898C81.1396 62.9981 81.4706 63.329 81.8788 63.329Z" fill="white"/>
<path d="M72.0126 63.2841C72.4208 63.2841 72.7517 62.9531 72.7517 62.5449C72.7517 62.1366 72.4208 61.8057 72.0126 61.8057C71.6044 61.8057 71.2734 62.1366 71.2734 62.5449C71.2734 62.9531 71.6044 63.2841 72.0126 63.2841Z" fill="white"/>
<path d="M109.63 88.8661C110.038 88.8661 110.369 88.5352 110.369 88.1269C110.369 87.7187 110.038 87.3877 109.63 87.3877C109.222 87.3877 108.891 87.7187 108.891 88.1269C108.891 88.5352 109.222 88.8661 109.63 88.8661Z" fill="white"/>
<path d="M109.63 37.7851C110.038 37.7851 110.369 37.4541 110.369 37.0459C110.369 36.6376 110.038 36.3066 109.63 36.3066C109.222 36.3066 108.891 36.6376 108.891 37.0459C108.891 37.4541 109.222 37.7851 109.63 37.7851Z" fill="white"/>
<path d="M0.834833 63.329C1.24304 63.329 1.57396 62.9981 1.57396 62.5898C1.57396 62.1815 1.24304 61.8506 0.834833 61.8506C0.426623 61.8506 0.0957031 62.1815 0.0957031 62.5898C0.0957031 62.9981 0.426623 63.329 0.834833 63.329Z" fill="white"/>
<path d="M43.287 63.329C43.6952 63.329 44.0261 62.9981 44.0261 62.5898C44.0261 62.1815 43.6952 61.8506 43.287 61.8506C42.8788 61.8506 42.5479 62.1815 42.5479 62.5898C42.5479 62.9981 42.8788 63.329 43.287 63.329Z" fill="white"/>
<path d="M53.1542 63.2841C53.5624 63.2841 53.8933 62.9531 53.8933 62.5449C53.8933 62.1366 53.5624 61.8057 53.1542 61.8057C52.746 61.8057 52.415 62.1366 52.415 62.5449C52.415 62.9531 52.746 63.2841 53.1542 63.2841Z" fill="white"/>
<path d="M15.5438 88.8661C15.952 88.8661 16.2829 88.5352 16.2829 88.1269C16.2829 87.7187 15.952 87.3877 15.5438 87.3877C15.1356 87.3877 14.8047 87.7187 14.8047 88.1269C14.8047 88.5352 15.1356 88.8661 15.5438 88.8661Z" fill="white"/>
<path d="M15.5438 37.7851C15.952 37.7851 16.2829 37.4541 16.2829 37.0459C16.2829 36.6376 15.952 36.3066 15.5438 36.3066C15.1356 36.3066 14.8047 36.6376 14.8047 37.0459C14.8047 37.4541 15.1356 37.7851 15.5438 37.7851Z" fill="white"/>
<path d="M62.5604 125.061C62.9686 125.061 63.2995 124.73 63.2995 124.322C63.2995 123.914 62.9686 123.583 62.5604 123.583C62.1522 123.583 61.8213 123.914 61.8213 124.322C61.8213 124.73 62.1522 125.061 62.5604 125.061Z" fill="white"/>
<path d="M62.5604 82.6044C62.9686 82.6044 63.2995 82.2735 63.2995 81.8652C63.2995 81.4569 62.9686 81.126 62.5604 81.126C62.1522 81.126 61.8213 81.4569 61.8213 81.8652C61.8213 82.2735 62.1522 82.6044 62.5604 82.6044Z" fill="white"/>
<path d="M62.6053 72.7441C63.0136 72.7441 63.3445 72.4131 63.3445 72.0048C63.3445 71.5966 63.0136 71.2656 62.6053 71.2656C62.1971 71.2656 61.8662 71.5966 61.8662 72.0048C61.8662 72.4131 62.1971 72.7441 62.6053 72.7441Z" fill="white"/>
<path d="M37.0272 110.358C37.4354 110.358 37.7663 110.027 37.7663 109.619C37.7663 109.211 37.4354 108.88 37.0272 108.88C36.619 108.88 36.2881 109.211 36.2881 109.619C36.2881 110.027 36.619 110.358 37.0272 110.358Z" fill="white"/>
<path d="M88.1014 110.358C88.5096 110.358 88.8406 110.027 88.8406 109.619C88.8406 109.211 88.5096 108.88 88.1014 108.88C87.6932 108.88 87.3623 109.211 87.3623 109.619C87.3623 110.027 87.6932 110.358 88.1014 110.358Z" fill="white"/>
<path d="M124.376 62.5454L123.622 61.1875L109.614 36.9938L77.0356 55.8538L74.1768 54.2243L72.0798 53.0173L70.9106 51.0106L69.2587 48.1589L88.1165 15.5385L63.903 1.59718L62.5528 0.842773L61.1951 1.59718L37.0571 15.531L55.9149 48.1514L54.2629 51.003L53.1088 53.0097L51.0119 54.2168L48.1153 55.9142L15.5215 37.0541L1.53654 61.195L0.782227 62.5529L1.53654 63.9109L15.4838 88.0518L48.1078 69.2294L50.9666 70.8815L53.0183 72.066L54.2177 74.1481L55.8621 77.0375L36.9515 109.582L61.1951 123.599L62.5302 124.354H62.6207L63.9558 123.599L88.1919 109.582L69.2737 77.0375L70.9181 74.1858L72.1175 72.1037L74.1692 70.9193L77.0356 69.2294L109.66 88.0895L123.607 63.9486L124.376 62.5454ZM2.93202 61.9947C5.07766 58.649 7.60944 55.5675 10.4751 52.8136C12.39 50.9686 14.821 49.7503 17.445 49.3207C19.3731 49.1174 21.3199 49.4489 23.0721 50.2788C23.7921 50.5975 24.4879 50.9681 25.154 51.3878L40.0743 60.5236L43.4386 62.5831L40.1271 64.6125L25.1314 73.7558C24.4544 74.1792 23.7487 74.5548 23.0193 74.8799C21.2615 75.7001 19.3142 76.0286 17.3846 75.8304C14.7739 75.4038 12.3555 74.1905 10.4525 72.3526C8.18957 70.361 5.71543 67.2981 2.90939 63.1866L2.80378 63.0735L2.46434 62.5982L2.85658 62.0777L2.93202 61.9947ZM51.389 25.1421C50.9628 24.4667 50.5871 23.7606 50.2651 23.0298C49.4395 21.2893 49.1057 19.3562 49.2996 17.4396C49.7436 14.8305 50.9571 12.4135 52.7845 10.4991C55.5358 7.63885 58.6116 5.10957 61.9494 2.96265L62.5453 2.51L63.1412 2.96265C66.4849 5.09636 69.5682 7.61296 72.3287 10.4614C74.1591 12.3737 75.3732 14.7916 75.8136 17.4019C76.0192 19.3296 75.6904 21.2766 74.8632 23.0298C74.5412 23.7606 74.1655 24.4667 73.7393 25.1421L64.6121 40.117L62.5755 43.4515L60.5388 40.117L51.389 25.1421ZM73.777 100.032C74.2033 100.71 74.5789 101.418 74.9009 102.152C75.7281 103.905 76.057 105.852 75.8513 107.779C75.4139 110.389 74.1993 112.805 72.3664 114.712C69.6102 117.579 66.5265 120.111 63.1789 122.256L63.1261 122.302L62.583 122.709L62.0248 122.302L61.972 122.256C58.6258 120.109 55.5423 117.577 52.7845 114.712C50.9516 112.805 49.737 110.389 49.2996 107.779C49.0939 105.852 49.4228 103.905 50.25 102.152C50.5769 101.418 50.9576 100.709 51.389 100.032L60.5237 85.0719L62.5755 81.7223L64.6724 85.0719L73.777 100.032ZM62.6132 72.247H62.5679L62.5227 72.2923L52.8976 62.5831L62.5302 52.8966L72.2684 62.5831L62.6132 72.247ZM122.249 62.0626L122.641 62.5831L122.302 63.0584L122.196 63.2017C119.42 67.3132 116.916 70.3761 114.653 72.3677C112.75 74.2055 110.332 75.4188 107.721 75.8455C105.791 76.0437 103.844 75.7152 102.086 74.895C101.357 74.5699 100.651 74.1943 99.9742 73.7709L85.0238 64.6125L81.7123 62.5831L85.0766 60.5236L100.012 51.3878C100.69 50.9639 101.398 50.5907 102.132 50.2713C103.884 49.4413 105.831 49.1099 107.759 49.3132C110.37 49.7487 112.787 50.9667 114.691 52.806C117.556 55.5603 120.088 58.6418 122.234 61.9871L122.249 62.0626Z" fill="white"/>
</svg>
