<svg id="Layer_1" data-name="Layer 1" xmlns="http://www.w3.org/2000/svg" width="14.12in" height="16.96in" viewBox="0 0 1016.43 1221.37"><path d="M559.66,959.18c-3.15-.36-6.32-.64-9.46-1.09-15-2.16-28.56-7.48-39.06-19-9.68-10.6-13.73-23.2-12-37.31,1.33-10.8,3.57-21.49,5.53-32.21q6-33.2,12.21-66.36t12.17-66q6.29-34.14,12.59-68.28,2.54-13.81,5.07-27.62c.21-1.13.43-1.87,1.93-1.87,13.09.07,26.18,0,39.27,0,.46,0,.92.07,1.63.14-.6,3.34-1.17,6.57-1.76,9.8q-5.92,32.4-11.86,64.81L563.71,781l-11.85,64.81q-5.94,32.41-11.86,64.82c-.92,5-2.06,10.07-2.53,15.16a23.54,23.54,0,0,0,15.13,24.51c13.89,5.54,33.59,3.38,46.18-11.11,4.44-5.1,6.12-11.24,7.26-17.72,4-22.61,8.14-45.2,12.22-67.8q5.93-32.77,11.83-65.55T642,722.57q2.35-13.05,4.72-26.08c.1-.51.13-1,.22-1.79H623.2c.81-4.53,1.58-8.78,2.36-13.14h90.17c-.75,4.18-1.44,8.29-2.27,12.37-.07.34-1.1.69-1.69.69-6.66,0-13.32,0-20,0h-2.19q-23.26,129.71-46.49,259.2h-2.16q-19.63,0-39.28,0a8.7,8.7,0,0,0-2.59.34,104.43,104.43,0,0,1-25.13,4.66,11.63,11.63,0,0,0-1.54.3Z"/><path d="M684.44,487.58c.7-4,1.36-7.72,2-11.47l11.91-65.89q6.08-33.63,12.16-67.27c2.74-15.19,5.63-30.34,8.12-45.57a40.19,40.19,0,0,0,0-12.29c-1.15-7.8-6-13-13.53-14.94-16-4.16-30.63-1.61-43,10-6.33,5.94-9.37,13.46-10.87,21.9-4.43,25-9.09,49.93-13.65,74.9q-6.45,35.28-12.89,70.55-6.27,34.32-12.57,68.64c-1,5.33-2,10.65-2.91,16-.17,1-.41,1.43-1.52,1.43q-20.07-.06-40.15,0a8.84,8.84,0,0,1-.91-.12c.54-3,1.06-6,1.6-9q6.53-35.36,13-70.71,6.41-34.74,12.8-69.49c3.52-19.05,7.12-38.08,10.52-57.15,3.34-18.79,12.92-33.65,27.81-45.3a90.23,90.23,0,0,1,45-18.54c11.48-1.48,22.91-1.54,34.27,1.08,27,6.23,42.15,30.37,43.89,50.37.66,7.6-.5,15-1.86,22.47-3.66,20.05-7.22,40.11-10.82,60.16q-5.77,32.18-11.54,64.33c-1.47,8.18-3,16.35-4.36,24.53-.2,1.15-.6,1.59-1.8,1.59-13.09,0-26.18,0-39.27,0C685.55,487.71,685.14,487.65,684.44,487.58Z"/><path d="M305.27,947.54c.6.06,1.05.15,1.5.15,12-.05,24.07.23,36.08-.26,16.08-.64,31-5.2,43.64-15.61,8.94-7.34,15.15-16.7,20-27.08,7.13-15.33,12.13-31.39,16.62-47.63,7.15-25.84,12.69-52,17.73-78.36.44-2.31.9-4.62,1.37-7h7.88q-17,91.1-34,182h-192c.35-1.86.59-3.64,1.08-5.36.11-.37,1.11-.7,1.7-.7,5.84-.05,11.68,0,17.51,0,5.37,0,10.74,0,16.1,0,1.25,0,1.81-.26,2.08-1.66,3.79-20.07,7.67-40.13,11.52-60.2q7-36.52,14-73t14-72.87l14.34-74.77q2.21-11.53,4.42-23.07c.61-3.12.18-2.61,3-2.62q18.76,0,37.51,0h2.5Q334.55,793.68,305.27,947.54Z"/><path d="M341.69,533.45q24.88-129.9,49.78-259.75H355.34c.37-2.06.66-3.83,1.05-5.59.05-.25.56-.49.9-.58a5.11,5.11,0,0,1,1.24,0H471.82A44.08,44.08,0,0,0,471,272c-.12,1.41-.8,1.68-2.07,1.67q-16.37-.06-32.72,0c-3.32,0-2.61-.48-3.23,2.75q-9.84,51.52-19.62,103.07-11.07,58.14-22.13,116.26-3.44,18-6.86,36.1c-.09.51-.25,1-.39,1.6Z"/><path d="M370.16,565.06c1.81,0,3.52-.09,5.21.05a2.56,2.56,0,0,1,1.56,1.09q9.42,14.2,18.76,28.46A4.12,4.12,0,0,0,397,596V565.18h6.61v44.71c-1.85,0-3.61.09-5.35,0-.48,0-1-.68-1.35-1.16q-9.35-14.14-18.65-28.32a4.09,4.09,0,0,0-1.46-1.43v30.86h-6.64Z"/><path d="M480.51,565.35c6.83,0,13.51-.4,20.11.11a11.67,11.67,0,0,1,10.87,10.76c.69,6.5-2,11.08-8.05,13.53l-.78.34,10.28,19.81c-2.51,0-4.73.07-6.94-.06-.51,0-1.16-.69-1.43-1.22-2.73-5.34-5.43-10.7-8-16.1a2.42,2.42,0,0,0-2.66-1.69c-2.16.14-4.34,0-6.7,0v18.88h-6.67Zm6.7,5.71v14.05a5,5,0,0,0,.64.11c3.3,0,6.6,0,9.9,0,4-.05,7-2.68,7.11-6.35.19-4.46-2.24-7.51-6.58-7.77C494.65,570.89,491,571.06,487.21,571.06Z"/><path d="M586.2,591.33h-9.4v-5.49h16.09c-.09,4.59.48,9.19-.79,13.69-1.81,6.44-8.34,10.86-15.76,10.73-8.27-.14-14.92-5.85-15.51-13.74-.38-5-.19-10.13-.21-15.19a19.86,19.86,0,0,1,.29-3.7c1.3-7.13,5.85-11.7,13.2-12.75,9.39-1.34,17.14,4.07,18.62,13.58-2,0-4,.07-6-.07-.38,0-.85-.8-1-1.32-1.9-5.05-6.62-7.53-11.77-6-3.8,1.1-6.16,3.77-6.32,7.64a144.43,144.43,0,0,0,.17,18.14c.42,4.88,4.55,7.77,9.32,7.48a9.25,9.25,0,0,0,9-8.7C586.28,594.25,586.2,592.9,586.2,591.33Z"/><path d="M314.25,565.12h6.56v1.93c0,9.25-.08,18.5,0,27.75.11,8.49,7.65,11,13.34,8.69,3.91-1.59,5.39-4.91,5.41-8.92,0-9.14,0-18.27,0-27.41v-2h6.55a11.12,11.12,0,0,1,.13,1.16c0,9.54.05,19.09,0,28.64a14.82,14.82,0,0,1-11.13,14.6c-7.35,2-14.91-.53-18.61-6.29a14.38,14.38,0,0,1-2.36-7.66c-.07-9.9,0-19.8,0-29.7A5.84,5.84,0,0,1,314.25,565.12Z"/><path d="M423,609.9c1.24-3.39,2.38-6.53,3.53-9.66,4.08-11.15,8.19-22.3,12.22-33.48a2.17,2.17,0,0,1,2.51-1.74c3.55.11,3.55,0,4.75,3.31q7.17,19.63,14.36,39.27c.26.7.49,1.42.78,2.3-2.14,0-4.08.06-6,0a1.88,1.88,0,0,1-1.3-1c-.84-2.13-1.63-4.3-2.26-6.5-.36-1.28-1-1.59-2.26-1.57-4.78.07-9.56.08-14.33,0-1.34,0-2,.35-2.4,1.66-.61,2.15-1.35,4.27-2.17,6.35a2.05,2.05,0,0,1-1.4,1.09C427.12,610,425.23,609.9,423,609.9ZM435.21,595h13.87c-2.25-6.57-4.43-12.93-6.62-19.29l-.49,0C439.74,582.09,437.51,588.43,435.21,595Z"/><path d="M648,609.9c-2.18,0-4.07.08-5.94,0a2.05,2.05,0,0,1-1.42-1.1c-.87-2.19-1.63-4.42-2.32-6.67a1.66,1.66,0,0,0-1.91-1.32c-5,0-9.9.08-14.86,0a1.85,1.85,0,0,0-2.09,1.58c-.8,2.52-1.69,5-2.55,7.51h-7c1.16-3.2,2.26-6.29,3.39-9.36,4.09-11.15,8.23-22.29,12.24-33.47.56-1.54,1.22-2.07,2.85-2,3.27.15,3.27,0,4.38,3.08q7.26,19.78,14.51,39.58C647.43,608.33,647.64,609,648,609.9Zm-12-14.82c-2.27-6.62-4.45-13-6.64-19.38l-.49,0L622,595.08Z"/><path d="M749,609.89c-2.27,0-4.31.06-6.35,0-.39,0-.9-.63-1.07-1.08-.86-2.25-1.67-4.53-2.39-6.83a1.43,1.43,0,0,0-1.65-1.16c-5.13,0-10.26,0-15.39.07a2.16,2.16,0,0,0-1.54,1.17c-.89,2.18-1.64,4.41-2.34,6.66a1.49,1.49,0,0,1-1.75,1.25c-1.82-.08-3.65,0-5.76,0l16.42-44.79h5.4C738,579.94,743.43,594.81,749,609.89ZM730.21,575.6h-.43L723,595h13.87Z"/><path d="M667.33,565.12h6.49v38.73h21.56v5.91h-28Z"/><path d="M267.48,565.14H274v38.74h21.57v5.89H267.48Z"/></svg>