<svg xmlns="http://www.w3.org/2000/svg" viewBox="0 0 531.64 697"><defs><style>.cls-1{fill:#fff;}</style></defs><g id="Layer_2" data-name="Layer 2"><g id="Layer_1-2" data-name="Layer 1"><path class="cls-1" d="M335.51,697c-3.15-.37-6.32-.65-9.46-1.1-15-2.15-28.56-7.48-39.06-19-9.68-10.6-13.73-23.2-12-37.31,1.33-10.8,3.57-21.49,5.53-32.2q6-33.2,12.21-66.37,6.09-33,12.17-66,6.28-34.14,12.59-68.28,2.53-13.8,5.07-27.62c.21-1.13.43-1.87,1.93-1.86,13.09.06,26.18,0,39.27,0,.46,0,.92.08,1.63.14-.6,3.34-1.17,6.57-1.76,9.8q-5.92,32.4-11.86,64.82l-12.21,66.73-11.85,64.82q-5.94,32.4-11.86,64.81c-.92,5-2.06,10.07-2.53,15.16a23.54,23.54,0,0,0,15.13,24.51c13.89,5.54,33.59,3.38,46.18-11.1,4.44-5.11,6.12-11.25,7.26-17.73,4-22.61,8.14-45.2,12.22-67.8q5.92-32.78,11.83-65.55t11.86-65.53q2.35-13,4.72-26.08c.1-.51.13-1,.22-1.79H399.05c.81-4.53,1.58-8.78,2.36-13.14h90.17c-.75,4.18-1.44,8.29-2.27,12.37-.07.34-1.1.69-1.69.7-6.66,0-13.32,0-20,0h-2.19Q442.18,562.18,419,691.67h-2.16q-19.64,0-39.28,0a8.7,8.7,0,0,0-2.59.34,104.43,104.43,0,0,1-25.13,4.66,10.25,10.25,0,0,0-1.54.31Z"/><path class="cls-1" d="M460.29,225.39c.7-3.95,1.36-7.72,2-11.47L474.24,148q6.08-33.63,12.16-67.27c2.74-15.18,5.63-30.34,8.12-45.57a40.19,40.19,0,0,0,0-12.29c-1.15-7.8-6-13-13.53-14.94-16-4.16-30.63-1.61-43,10-6.33,5.94-9.37,13.46-10.87,21.9-4.43,25-9.09,49.94-13.65,74.9Q407,150,400.57,185.33,394.3,219.64,388,254c-1,5.33-2,10.65-2.91,16-.17,1-.41,1.43-1.52,1.43q-20.07-.06-40.15,0a8.84,8.84,0,0,1-.91-.12c.54-3.05,1.06-6,1.6-9q6.52-35.35,13-70.71Q363.56,156.76,370,122c3.52-19.05,7.12-38.08,10.52-57.15,3.34-18.79,12.92-33.65,27.81-45.3A90.32,90.32,0,0,1,453.29,1C464.77-.46,476.2-.52,487.56,2.11c27,6.22,42.15,30.37,43.89,50.36.66,7.6-.5,15-1.86,22.47-3.66,20-7.22,40.11-10.82,60.16q-5.78,32.18-11.54,64.34c-1.47,8.17-3,16.34-4.36,24.52-.2,1.15-.6,1.59-1.8,1.59-13.09,0-26.18,0-39.27,0C461.4,225.52,461,225.46,460.29,225.39Z"/><path class="cls-1" d="M81.12,685.35c.6.06,1,.15,1.5.15,12,0,24.07.23,36.08-.25,16.08-.65,31-5.21,43.64-15.62,8.94-7.34,15.15-16.7,20-27.08,7.13-15.32,12.13-31.39,16.62-47.63,7.15-25.84,12.69-52,17.73-78.36.44-2.31.9-4.61,1.37-7h7.88q-17,91.09-34,182H0c.35-1.86.59-3.64,1.08-5.36.11-.37,1.11-.7,1.7-.7,5.84,0,11.68,0,17.51,0,5.37,0,10.74,0,16.1,0,1.25,0,1.81-.26,2.08-1.65,3.79-20.08,7.67-40.14,11.52-60.21q7-36.51,14-73t14-72.86L92.29,403q2.2-11.53,4.42-23.07c.61-3.12.18-2.61,3-2.62q18.76,0,37.51,0h2.5Q110.4,531.48,81.12,685.35Z"/><path class="cls-1" d="M117.54,271.26q24.88-129.88,49.78-259.75H131.19c.37-2.06.66-3.83,1.05-5.59,0-.25.56-.49.9-.58a5.11,5.11,0,0,1,1.24,0H247.67a44.08,44.08,0,0,0-.81,4.51c-.12,1.41-.8,1.68-2.07,1.67q-16.36-.06-32.72,0c-3.32,0-2.61-.48-3.23,2.75Q199,65.77,189.22,117.3q-11.07,58.14-22.13,116.26-3.43,18-6.86,36.1c-.09.51-.25,1-.39,1.6Z"/><path class="cls-1" d="M146,302.87c1.81,0,3.52-.09,5.21.05a2.53,2.53,0,0,1,1.56,1.1q9.42,14.19,18.76,28.45a4.12,4.12,0,0,0,1.31,1.38V303h6.61V347.7c-1.85,0-3.61.09-5.35-.05-.48,0-1-.68-1.35-1.16q-9.34-14.14-18.65-28.32a4.09,4.09,0,0,0-1.46-1.43V347.6H146Z"/><path class="cls-1" d="M256.36,303.16c6.83,0,13.51-.39,20.11.11A11.67,11.67,0,0,1,287.34,314c.69,6.49-2,11.07-8,13.52l-.78.34,10.28,19.81c-2.51,0-4.73.07-6.94-.06-.51,0-1.16-.69-1.43-1.22-2.73-5.34-5.43-10.7-8-16.09a2.42,2.42,0,0,0-2.66-1.7c-2.16.14-4.34,0-6.7,0v18.88h-6.67Zm6.7,5.71v14.05a5,5,0,0,0,.64.11c3.3,0,6.6,0,9.9,0,4,0,7-2.68,7.11-6.35.19-4.46-2.24-7.51-6.58-7.76C270.5,308.7,266.84,308.87,263.06,308.87Z"/><path class="cls-1" d="M362.05,329.14h-9.4v-5.49h16.09c-.09,4.6.48,9.19-.79,13.69-1.81,6.45-8.34,10.86-15.76,10.73-8.27-.14-14.92-5.84-15.51-13.74-.38-5-.19-10.13-.21-15.19a19.86,19.86,0,0,1,.29-3.7c1.3-7.13,5.85-11.7,13.2-12.75,9.39-1.34,17.14,4.07,18.62,13.58-2,0-4,.07-5.95-.07-.38,0-.85-.8-1.05-1.32-1.9-5.05-6.62-7.53-11.77-6-3.8,1.1-6.16,3.77-6.32,7.64a144.61,144.61,0,0,0,.17,18.15c.42,4.88,4.55,7.76,9.32,7.47a9.25,9.25,0,0,0,9-8.7C362.13,332.06,362.05,330.71,362.05,329.14Z"/><path class="cls-1" d="M90.1,302.93h6.56v1.93c0,9.25-.08,18.5,0,27.75.11,8.49,7.65,11,13.34,8.69,3.91-1.59,5.39-4.91,5.41-8.92,0-9.14,0-18.27,0-27.4v-2H122a11.12,11.12,0,0,1,.13,1.16c0,9.55.05,19.09,0,28.64A14.82,14.82,0,0,1,111,347.37c-7.35,2-14.91-.53-18.61-6.29A14.32,14.32,0,0,1,90,333.42c-.07-9.9,0-19.8,0-29.7A5.84,5.84,0,0,1,90.1,302.93Z"/><path class="cls-1" d="M198.82,347.71l3.53-9.66c4.08-11.15,8.19-22.3,12.22-33.48a2.17,2.17,0,0,1,2.51-1.74c3.55.11,3.55,0,4.75,3.31q7.17,19.64,14.36,39.27c.26.71.49,1.42.78,2.3-2.14,0-4.08.06-6,0a1.86,1.86,0,0,1-1.3-1c-.84-2.13-1.63-4.29-2.26-6.5-.36-1.28-1-1.59-2.26-1.57-4.78.07-9.56.08-14.33,0a2,2,0,0,0-2.4,1.67c-.61,2.14-1.35,4.26-2.17,6.34a2.05,2.05,0,0,1-1.4,1.09C203,347.79,201.08,347.71,198.82,347.71Zm12.24-14.91h13.87c-2.25-6.56-4.43-12.93-6.62-19.29l-.49.05C215.59,319.9,213.36,326.24,211.06,332.8Z"/><path class="cls-1" d="M423.8,347.71c-2.18,0-4.07.08-5.94,0a2.05,2.05,0,0,1-1.42-1.1c-.87-2.19-1.63-4.42-2.32-6.66a1.65,1.65,0,0,0-1.91-1.32c-4.95,0-9.9.07-14.86,0a1.85,1.85,0,0,0-2.09,1.58c-.8,2.52-1.69,5-2.55,7.51h-7c1.16-3.2,2.26-6.28,3.39-9.36,4.09-11.15,8.23-22.28,12.24-33.46.56-1.55,1.22-2.08,2.85-2,3.27.15,3.27.05,4.38,3.08q7.26,19.78,14.51,39.59C423.28,346.14,423.49,346.8,423.8,347.71Zm-12-14.82c-2.27-6.62-4.45-13-6.64-19.38l-.49,0c-2.25,6.41-4.49,12.82-6.79,19.36Z"/><path class="cls-1" d="M524.81,347.7c-2.27,0-4.31.06-6.35-.05-.39,0-.9-.63-1.07-1.08-.86-2.25-1.67-4.53-2.39-6.83a1.43,1.43,0,0,0-1.65-1.16c-5.13,0-10.26,0-15.39.07a2.16,2.16,0,0,0-1.54,1.17c-.89,2.18-1.64,4.41-2.34,6.66a1.49,1.49,0,0,1-1.75,1.25c-1.82-.08-3.65,0-5.76,0L503,302.92h5.4C513.82,317.75,519.28,332.62,524.81,347.7Zm-18.75-34.29h-.43l-6.81,19.42h13.87Z"/><path class="cls-1" d="M443.18,302.93h6.49v38.73h21.56v5.91H443.18Z"/><path class="cls-1" d="M43.33,303h6.49v38.74H71.39v5.9H43.33Z"/></g></g></svg>