<svg width="151" height="151" viewBox="0 0 151 151" fill="none" xmlns="http://www.w3.org/2000/svg">
<path d="M75.2088 53.2743C75.6995 53.2743 76.0973 52.8764 76.0973 52.3857C76.0973 51.8949 75.6995 51.4971 75.2088 51.4971C74.7181 51.4971 74.3203 51.8949 74.3203 52.3857C74.3203 52.8764 74.7181 53.2743 75.2088 53.2743Z" fill="white"/>
<path d="M75.1566 65.1263C75.6473 65.1263 76.0451 64.7285 76.0451 64.2377C76.0451 63.747 75.6473 63.3491 75.1566 63.3491C74.6659 63.3491 74.2681 63.747 74.2681 64.2377C74.2681 64.7285 74.6659 65.1263 75.1566 65.1263Z" fill="white"/>
<path d="M105.9 19.9159C106.39 19.9159 106.788 19.518 106.788 19.0273C106.788 18.5365 106.39 18.1387 105.9 18.1387C105.409 18.1387 105.011 18.5365 105.011 19.0273C105.011 19.518 105.409 19.9159 105.9 19.9159Z" fill="white"/>
<path d="M44.512 19.9159C45.0027 19.9159 45.4005 19.518 45.4005 19.0273C45.4005 18.5365 45.0027 18.1387 44.512 18.1387C44.0213 18.1387 43.6235 18.5365 43.6235 19.0273C43.6235 19.518 44.0213 19.9159 44.512 19.9159Z" fill="white"/>
<path d="M75.2088 2.23399C75.6995 2.23399 76.0973 1.83615 76.0973 1.34539C76.0973 0.854628 75.6995 0.456787 75.2088 0.456787C74.7181 0.456787 74.3203 0.854628 74.3203 1.34539C74.3203 1.83615 74.7181 2.23399 75.2088 2.23399Z" fill="white"/>
<path d="M75.2088 53.2743C75.6995 53.2743 76.0973 52.8764 76.0973 52.3857C76.0973 51.8949 75.6995 51.4971 75.2088 51.4971C74.7181 51.4971 74.3203 51.8949 74.3203 52.3857C74.3203 52.8764 74.7181 53.2743 75.2088 53.2743Z" fill="white"/>
<path d="M75.1566 65.1263C75.6473 65.1263 76.0451 64.7285 76.0451 64.2377C76.0451 63.747 75.6473 63.3491 75.1566 63.3491C74.6659 63.3491 74.2681 63.747 74.2681 64.2377C74.2681 64.7285 74.6659 65.1263 75.1566 65.1263Z" fill="white"/>
<path d="M105.9 19.9159C106.39 19.9159 106.788 19.518 106.788 19.0273C106.788 18.5365 106.39 18.1387 105.9 18.1387C105.409 18.1387 105.011 18.5365 105.011 19.0273C105.011 19.518 105.409 19.9159 105.9 19.9159Z" fill="white"/>
<path d="M44.512 19.9159C45.0027 19.9159 45.4005 19.518 45.4005 19.0273C45.4005 18.5365 45.0027 18.1387 44.512 18.1387C44.0213 18.1387 43.6235 18.5365 43.6235 19.0273C43.6235 19.518 44.0213 19.9159 44.512 19.9159Z" fill="white"/>
<path d="M149.426 76.4667C149.917 76.4667 150.315 76.0688 150.315 75.578C150.315 75.0873 149.917 74.6895 149.426 74.6895C148.935 74.6895 148.538 75.0873 148.538 75.578C148.538 76.0688 148.935 76.4667 149.426 76.4667Z" fill="white"/>
<path d="M98.4031 76.4667C98.8938 76.4667 99.2916 76.0688 99.2916 75.578C99.2916 75.0873 98.8938 74.6895 98.4031 74.6895C97.9124 74.6895 97.5146 75.0873 97.5146 75.578C97.5146 76.0688 97.9124 76.4667 98.4031 76.4667Z" fill="white"/>
<path d="M86.5423 76.4137C87.033 76.4137 87.4308 76.0158 87.4308 75.5251C87.4308 75.0343 87.033 74.6365 86.5423 74.6365C86.0516 74.6365 85.6538 75.0343 85.6538 75.5251C85.6538 76.0158 86.0516 76.4137 86.5423 76.4137Z" fill="white"/>
<path d="M131.756 107.162C132.246 107.162 132.644 106.765 132.644 106.274C132.644 105.783 132.246 105.385 131.756 105.385C131.265 105.385 130.867 105.783 130.867 106.274C130.867 106.765 131.265 107.162 131.756 107.162Z" fill="white"/>
<path d="M131.756 45.7652C132.246 45.7652 132.644 45.3674 132.644 44.8766C132.644 44.3859 132.246 43.988 131.756 43.988C131.265 43.988 130.867 44.3859 130.867 44.8766C130.867 45.3674 131.265 45.7652 131.756 45.7652Z" fill="white"/>
<path d="M0.993475 76.4667C1.48418 76.4667 1.88197 76.0688 1.88197 75.578C1.88197 75.0873 1.48418 74.6895 0.993475 74.6895C0.502773 74.6895 0.10498 75.0873 0.10498 75.578C0.10498 76.0688 0.502773 76.4667 0.993475 76.4667Z" fill="white"/>
<path d="M52.0184 76.4667C52.5091 76.4667 52.9069 76.0688 52.9069 75.578C52.9069 75.0873 52.5091 74.6895 52.0184 74.6895C51.5277 74.6895 51.1299 75.0873 51.1299 75.578C51.1299 76.0688 51.5277 76.4667 52.0184 76.4667Z" fill="white"/>
<path d="M63.8768 76.4137C64.3675 76.4137 64.7653 76.0158 64.7653 75.5251C64.7653 75.0343 64.3675 74.6365 63.8768 74.6365C63.3861 74.6365 62.9883 75.0343 62.9883 75.5251C62.9883 76.0158 63.3861 76.4137 63.8768 76.4137Z" fill="white"/>
<path d="M18.6736 107.162C19.1644 107.162 19.5621 106.765 19.5621 106.274C19.5621 105.783 19.1644 105.385 18.6736 105.385C18.1829 105.385 17.7852 105.783 17.7852 106.274C17.7852 106.765 18.1829 107.162 18.6736 107.162Z" fill="white"/>
<path d="M18.6736 45.7652C19.1644 45.7652 19.5621 45.3674 19.5621 44.8766C19.5621 44.3859 19.1644 43.988 18.6736 43.988C18.1829 43.988 17.7852 44.3859 17.7852 44.8766C17.7852 45.3674 18.1829 45.7652 18.6736 45.7652Z" fill="white"/>
<path d="M75.1834 150.666C75.6741 150.666 76.0719 150.269 76.0719 149.778C76.0719 149.287 75.6741 148.889 75.1834 148.889C74.6927 148.889 74.2949 149.287 74.2949 149.778C74.2949 150.269 74.6927 150.666 75.1834 150.666Z" fill="white"/>
<path d="M75.1834 99.6359C75.6741 99.6359 76.0719 99.238 76.0719 98.7473C76.0719 98.2565 75.6741 97.8586 75.1834 97.8586C74.6927 97.8586 74.2949 98.2565 74.2949 98.7473C74.2949 99.238 74.6927 99.6359 75.1834 99.6359Z" fill="white"/>
<path d="M75.2357 87.786C75.7264 87.786 76.1242 87.3882 76.1242 86.8974C76.1242 86.4066 75.7264 86.0088 75.2357 86.0088C74.745 86.0088 74.3472 86.4066 74.3472 86.8974C74.3472 87.3882 74.745 87.786 75.2357 87.786Z" fill="white"/>
<path d="M44.4925 132.996C44.9832 132.996 45.381 132.598 45.381 132.108C45.381 131.617 44.9832 131.219 44.4925 131.219C44.0018 131.219 43.604 131.617 43.604 132.108C43.604 132.598 44.0018 132.996 44.4925 132.996Z" fill="white"/>
<path d="M105.88 132.996C106.371 132.996 106.769 132.598 106.769 132.108C106.769 131.617 106.371 131.219 105.88 131.219C105.389 131.219 104.992 131.617 104.992 132.108C104.992 132.598 105.389 132.996 105.88 132.996Z" fill="white"/>
<path d="M149.48 75.525L148.573 73.8929L131.737 44.8138L92.5801 67.4823L89.144 65.5237L86.6236 64.0729L85.2183 61.661L83.2328 58.2335L105.898 19.0263L76.7957 2.26977L75.1729 1.36304L73.541 2.26977L44.5289 19.0172L67.1946 58.2245L65.209 61.6519L63.8219 64.0639L61.3015 65.5146L57.82 67.5548L18.6447 44.8864L1.83583 73.9019L0.929199 75.5341L1.83583 77.1662L18.5994 106.182L57.811 83.5587L61.2471 85.5444L63.7131 86.968L65.1547 89.4706L67.1311 92.9434L44.402 132.06L73.541 148.907L75.1457 149.814H75.2545L76.8592 148.907L105.989 132.06L83.2509 92.9434L85.2274 89.5159L86.6689 87.0134L89.1349 85.5898L92.5801 83.5587L131.792 106.227L148.555 77.2115L149.48 75.525ZM3.51309 74.8631C6.09199 70.8419 9.135 67.1381 12.5794 63.8281C14.8808 61.6106 17.8028 60.1463 20.9566 59.6299C23.274 59.3856 25.614 59.784 27.72 60.7815C28.5854 61.1645 29.4217 61.6099 30.2223 62.1144L48.1554 73.095L52.199 75.5703L48.2189 78.0095L30.1951 88.9991C29.3814 89.508 28.5332 89.9594 27.6566 90.3501C25.5438 91.336 23.2033 91.7308 20.8841 91.4926C17.7461 90.9798 14.8394 89.5215 12.5522 87.3126C9.83228 84.9188 6.85854 81.2374 3.48589 76.2957L3.35896 76.1597L2.95098 75.5885L3.42242 74.9628L3.51309 74.8631ZM61.7548 30.569C61.2425 29.7572 60.791 28.9086 60.4039 28.0302C59.4117 25.9383 59.0104 23.6148 59.2434 21.3112C59.7771 18.1752 61.2357 15.2702 63.4321 12.9693C66.7389 9.53142 70.4358 6.49141 74.4476 3.91097L75.1638 3.36692L75.8801 3.91097C79.8989 6.47553 83.6049 9.5003 86.9228 12.9239C89.1228 15.2223 90.582 18.1285 91.1114 21.2659C91.3585 23.5828 90.9633 25.923 89.969 28.0302C89.582 28.9086 89.1305 29.7572 88.6182 30.569L77.648 48.5677L75.2001 52.5755L72.7522 48.5677L61.7548 30.569ZM88.6635 120.581C89.1758 121.396 89.6274 122.247 90.0144 123.129C91.0086 125.236 91.4039 127.576 91.1567 129.893C90.631 133.029 89.1711 135.933 86.9681 138.226C83.6553 141.671 79.949 144.714 75.9254 147.293L75.8619 147.348L75.2091 147.837L74.5382 147.348L74.4748 147.293C70.4529 144.712 66.7468 141.669 63.4321 138.226C61.229 135.933 59.7692 133.029 59.2434 129.893C58.9963 127.576 59.3915 125.236 60.3858 123.129C60.7787 122.247 61.2362 121.395 61.7548 120.581L72.7341 102.6L75.2001 98.5742L77.7205 102.6L88.6635 120.581ZM75.2454 87.1856H75.191L75.1366 87.24L63.5681 75.5703L75.1457 63.9278L86.8502 75.5703L75.2454 87.1856ZM146.923 74.9447L147.395 75.5703L146.987 76.1416L146.86 76.3139C143.523 81.2556 140.513 84.9369 137.794 87.3307C135.506 89.5396 132.6 90.9979 129.462 91.5108C127.142 91.7489 124.802 91.3541 122.689 90.3683C121.813 89.9776 120.964 89.5261 120.151 89.0172L102.181 78.0095L98.2012 75.5703L102.245 73.095L120.196 62.1144C121.011 61.6049 121.862 61.1563 122.744 60.7724C124.85 59.7749 127.19 59.3765 129.507 59.6208C132.645 60.1443 135.551 61.6082 137.839 63.819C141.283 67.1294 144.326 70.8332 146.905 74.854L146.923 74.9447Z" fill="white" stroke="white" stroke-width="0.306108" stroke-miterlimit="10"/>
</svg>
