<?xml version="1.0" standalone="no"?>
<!DOCTYPE svg PUBLIC "-//W3C//DTD SVG 20010904//EN"
 "http://www.w3.org/TR/2001/REC-SVG-20010904/DTD/svg10.dtd">
<svg version="1.0" xmlns="http://www.w3.org/2000/svg"
 width="97.000000pt" height="97.000000pt" viewBox="0 0 97.000000 97.000000"
 preserveAspectRatio="xMidYMid meet">
<metadata>
Created by potrace 1.11, written by Peter Selinger 2001-2013
</metadata>
<g transform="translate(0.000000,97.000000) scale(0.100000,-0.100000)"
fill="#000000" stroke="none">
<path d="M392 920 c-46 -28 -88 -50 -92 -50 -21 0 -19 -22 5 -59 14 -23 25
-42 25 -44 0 -2 22 -41 50 -86 52 -88 53 -102 8 -130 -17 -11 -36 -3 -143 58
-67 39 -126 71 -131 71 -5 0 -33 -44 -63 -97 l-54 -96 19 -36 c33 -63 86 -151
94 -156 5 -3 63 27 130 65 128 74 146 77 173 37 14 -21 10 -30 -58 -147 -40
-69 -71 -128 -68 -132 8 -14 178 -111 193 -110 8 0 53 23 100 51 47 28 89 52
94 54 5 2 -24 59 -63 127 -77 132 -83 160 -38 181 20 9 41 0 146 -60 68 -39
126 -71 129 -71 8 0 112 183 112 196 0 14 -105 194 -114 194 -4 0 -63 -32
-131 -71 -107 -61 -125 -69 -142 -58 -47 29 -45 39 33 174 41 70 73 129 72
130 -9 7 -197 115 -200 115 -1 -1 -41 -23 -86 -50z m146 -11 c60 -59 60 -79
-8 -191 l-49 -81 -34 54 c-59 92 -75 127 -69 154 5 31 78 105 102 105 9 0 36
-18 58 -41z m-303 -366 c43 -27 78 -52 78 -58 -1 -13 -131 -93 -165 -100 -34
-8 -73 14 -111 63 -26 34 -27 36 -10 61 30 47 76 81 109 81 11 0 56 -21 99
-47z m628 35 c23 -12 62 -52 77 -79 17 -31 -69 -119 -116 -119 -11 0 -57 23
-103 51 -95 59 -95 53 13 118 74 43 94 48 129 29z m-347 -52 c19 -19 34 -36
34 -39 0 -11 -59 -67 -70 -67 -11 0 -70 56 -70 67 0 5 63 72 69 73 1 0 18 -15
37 -34z m-8 -238 c86 -127 92 -164 33 -223 -45 -47 -65 -51 -99 -23 -79 64
-81 96 -16 205 27 46 50 83 51 83 1 0 15 -19 31 -42z"/>
</g>
</svg>
