<svg viewBox="0 0 108 126" fill="none" xmlns="http://www.w3.org/2000/svg">
<path d="M17.0346 39.8237C7.73962 44.5519 2 51.054 2 58.2309C2 70.0269 17.5052 80.0001 38.8175 83.2696M90.9654 39.8237C100.26 44.5519 106 51.054 106 58.2309C106 61.3616 104.908 64.3639 102.905 67.1466" stroke="white" stroke-width="3.09524" stroke-linecap="round"/>
<path d="M43.4272 84.4449C44.0697 83.8813 44.1336 82.9035 43.57 82.2609L34.3845 71.7903C33.8209 71.1478 32.8431 71.0839 32.2005 71.6475C31.558 72.2112 31.4941 73.189 32.0577 73.8315L40.2226 83.1387L30.9154 91.3036C30.2728 91.8672 30.2089 92.845 30.7726 93.4876C31.3362 94.1301 32.3141 94.194 32.9566 93.6304L43.4272 84.4449ZM39.2096 84.6234L42.3056 84.8258L42.5075 81.7372L39.4115 81.5348L39.2096 84.6234Z" fill="white"/>
<path d="M18.3135 85.4311V111.941C18.3135 118.698 23.7914 124.176 30.5488 124.176H77.4507C84.2081 124.176 89.686 118.698 89.686 111.941V14.0585C89.686 7.30117 84.2081 1.82324 77.4507 1.82324H30.5488C23.7914 1.82324 18.3135 7.30117 18.3135 14.0585V68.0977" stroke="white" stroke-width="3.09524" stroke-linecap="round"/>
</svg>
